<svg width="25" height="24" viewBox="0 0 25 24" fill="none" xmlns="http://www.w3.org/2000/svg">
<path d="M12.5 22C18.0228 22 22.5 17.5228 22.5 12C22.5 6.47715 18.0228 2 12.5 2C6.97715 2 2.5 6.47715 2.5 12C2.5 17.5228 6.97715 22 12.5 22Z" stroke="white" stroke-width="2" stroke-linecap="round" stroke-linejoin="round"/>
<path d="M9.59003 9.00001C9.82513 8.33167 10.2892 7.76811 10.9 7.40914C11.5108 7.05016 12.2289 6.91894 12.9272 7.03872C13.6255 7.15849 14.2588 7.52153 14.7151 8.06353C15.1714 8.60554 15.4211 9.29153 15.42 10C15.42 12 12.42 13 12.42 13" stroke="white" stroke-width="2" stroke-linecap="round" stroke-linejoin="round"/>
<path d="M12.5 17H12.51" stroke="white" stroke-width="2" stroke-linecap="round" stroke-linejoin="round"/>
</svg>
